<svg xmlns="http://www.w3.org/2000/svg" version="1.1" xmlns:xlink="http://www.w3.org/1999/xlink" xmlns:svgjs="http://svgjs.dev/svgjs" viewBox="0 0 1422 800"><defs><linearGradient x1="50%" y1="0%" x2="50%" y2="100%" id="ccchaos-grad"><stop stop-color="hsl(105, 69%, 40%)" stop-opacity="1" offset="0%"></stop><stop stop-color="hsl(105, 69%, 60%)" stop-opacity="1" offset="100%"></stop></linearGradient></defs><g stroke-width="2" stroke="url(#ccchaos-grad)" fill="none" stroke-linecap="round"><path d="M704.53 105.93C714.25 103.92 724.13 102.75 734.17 102.44 744.24 102.53 754.49 103.52 764.9 105.38 775.37 107.67 786.03 110.8 796.85 114.71 807.73 118.97 818.77 123.92 829.92 129.49 841.08 135.26 852.29 141.55 863.44 148.25 874.48 155 885.32 162.08 895.81 169.4 905.96 176.64 915.53 184.06 924.35 191.61 932.52 198.99 939.7 206.46 945.71 214.01 950.84 221.35 954.65 228.76 957.08 236.24 958.63 243.51 958.89 250.87 957.92 258.35 956.51 265.64 954.29 273.08 951.54 280.67 949.15 288.12 946.86 295.78 945.05 303.64 944.53 311.41 945.09 319.42 946.96 327.69 950.69 335.9 955.92 344.4 962.57 353.18 970.8 361.93 979.97 370.99 989.64 380.36 999.68 389.71 1009.2 399.4 1017.59 409.41 1024.73 419.42 1029.61 429.54 1031.99 439.72 1032.27 449.92 1029.9 460.19 1025.08 470.51 1018.45 480.83 1009.94 491.18 999.99 501.52 989.3 511.85 978.04 522.13 966.64 532.3 955.68 542.41 945.26 552.36 935.62 562.07 927.14 571.63 919.68 580.87 913.25 589.69 908.08 598.26 903.79 606.3 900.18 613.73 896.35 623.95 890.2 639.81 886.8 645.19 882.92 648.97 871.45 651.65 863.64 650.9 857.9 650.13 851.43 648.93 844.27 647.42 836.89 646.28 828.91 645.13 820.42 644.14 811.77 643.92 802.7 644.12 793.28 644.84 783.78 646.61 774 649.03 763.98 652.08 753.94 656.17 743.71 660.79 733.31 665.81 722.91 671.51 712.6 677.12 702.39 682.42 692.18 687.78 682.06 692.42 672.03 696.17 661.98 699.43 651.99 701.5 642.09 702.3 632.13 702.29 622.23 700.91 612.4 698.19 602.52 694.61 592.7 689.76 582.97 683.78 573.22 677.08 563.59 669.44 554.13 661 544.72 652.13 535.54 642.68 526.66 632.81 517.93 622.78 509.59 612.51 501.7 602.12 494.09 591.79 487.01 581.44 480.55 571.15 474.43 561.04 468.96 551.03 464.18 541.14 459.73 531.47 455.94 521.9 452.81 512.45 449.89 503.18 447.53 493.98 445.68 484.83 443.83 475.82 442.35 466.8 441.18 457.76 439.79 448.8 438.58 439.78 437.52 430.68 436.07 421.62 434.71 412.44 433.43 403.16 431.76 393.89 430.22 384.5 428.87 375 427.29 365.5 426.1 356.11 425.35 346.87 424.65 337.64 424.56 328.57 425.14 319.69 425.99 310.84 427.62 302.21 430.04 293.84 432.83 285.51 436.43 277.47 440.77 269.76 445.46 262.12 450.83 254.82 456.78 247.9 462.94 241.06 469.56 234.62 476.54 228.59 483.53 222.62 490.76 217.06 498.16 211.92 505.39 206.8 512.71 202.06 520.08 197.7 527.18 193.29 534.31 189.19 541.46 185.39 548.32 181.44 555.24 177.71 562.23 174.17 568.97 170.37 575.85 166.7 582.87 163.12 589.72 159.2 596.78 155.32 604.08 151.5 611.26 147.3 618.72 143.14 626.48 139.06 634.17 134.67 642.18 130.4 650.53 126.33 658.83 122.09 667.48 118.16 676.48 114.63 685.46 111.14 694.81 108.21 704.53 105.93" stroke-dasharray="8 0" transform="rotate(0, 711, 400)" opacity="0.23"></path><path d="M710.62 116.7C720.1 114.71 729.76 113.52 739.56 113.14 749.39 113.15 759.39 114.01 769.54 115.71 779.73 117.81 790.07 120.72 800.52 124.39 811 128.4 821.57 133.09 832.16 138.38 842.71 143.9 853.2 149.92 863.53 156.37 873.69 162.9 883.53 169.77 892.92 176.91 901.92 184 910.27 191.3 917.81 198.74 924.73 206.05 930.66 213.47 935.45 220.98 939.48 228.31 942.3 235.72 943.89 243.2 944.8 250.49 944.61 257.88 943.44 265.35 942.02 272.66 940.02 280.09 937.69 287.66 935.86 295.1 934.27 302.71 933.22 310.5 933.45 318.19 934.72 326.1 937.2 334.24 941.38 342.31 946.88 350.64 953.61 359.22 961.71 367.77 970.58 376.6 979.83 385.72 989.35 394.81 998.35 404.21 1006.27 413.9 1013.06 423.59 1017.77 433.36 1020.2 443.17 1020.72 452.99 1018.81 462.85 1014.62 472.72 1008.73 482.59 1001.03 492.46 991.89 502.27 981.97 512.05 971.35 521.75 960.44 531.29 949.77 540.76 939.42 550.02 929.65 559.01 920.82 567.83 912.85 576.3 905.76 584.32 899.8 592.09 894.67 599.33 890.23 605.95 885.17 615.01 877.23 628.82 873.41 633.38 869.47 636.55 858.85 638.65 851.85 637.93 846.77 637.29 841.01 636.3 834.6 635.08 828.02 634.25 820.83 633.45 813.11 632.81 805.27 632.91 796.95 633.4 788.22 634.36 779.43 636.28 770.29 638.77 760.84 641.82 751.38 645.81 741.65 650.26 731.69 655.05 721.72 660.45 711.78 665.75 701.87 670.77 691.97 675.86 682.1 680.29 672.28 683.91 662.45 687.12 652.66 689.25 642.91 690.23 633.15 690.49 623.43 689.5 613.77 687.27 604.11 684.25 594.51 680.05 585.03 674.76 575.57 668.79 566.25 661.89 557.14 654.19 548.12 646.05 539.36 637.29 530.93 628.07 522.7 618.64 514.87 608.9 507.51 598.98 500.45 589.05 493.92 579.04 488 569.02 482.42 559.13 477.46 549.28 473.15 539.51 469.15 529.91 465.76 520.4 462.99 510.99 460.38 501.73 458.27 492.55 456.63 483.42 454.96 474.43 453.61 465.45 452.54 456.48 451.22 447.6 450.05 438.68 449 429.74 447.56 420.84 446.18 411.87 444.88 402.84 443.18 393.83 441.6 384.74 440.19 375.6 438.55 366.45 437.28 357.46 436.42 348.66 435.6 339.85 435.37 331.23 435.77 322.84 436.44 314.46 437.85 306.32 440.02 298.46 442.56 290.63 445.89 283.09 449.94 275.88 454.36 268.71 459.45 261.88 465.14 255.43 471.06 249.02 477.46 242.99 484.26 237.34 491.11 231.73 498.23 226.49 505.56 221.63 512.77 216.75 520.11 212.22 527.51 208.03 534.69 203.75 541.91 199.74 549.16 196 556.16 192.08 563.19 188.35 570.28 184.79 577.13 180.96 584.07 177.24 591.14 173.6 598.02 169.63 605.08 165.7 612.33 161.83 619.45 157.61 626.81 153.44 634.44 149.36 641.98 144.99 649.82 140.76 657.97 136.74 666.07 132.57 674.5 128.71 683.27 125.24 692.02 121.83 701.14 118.95 710.62 116.7" stroke-dasharray="5 5" transform="rotate(4.04, 711, 400)" opacity="0.69"></path><path d="M716.74 127.47C725.98 125.49 735.37 124.28 744.89 123.85 754.43 123.78 764.11 124.52 773.9 126.06 783.71 127.98 793.62 130.67 803.58 134.09 813.53 137.85 823.5 142.27 833.4 147.28 843.22 152.51 852.88 158.26 862.29 164.44 871.47 170.73 880.25 177.36 888.51 184.28 896.36 191.19 903.52 198.32 909.85 205.62 915.61 212.82 920.4 220.15 924.14 227.58 927.23 234.87 929.25 242.25 930.2 249.69 930.66 256.98 930.21 264.36 929 271.81 927.72 279.12 926.06 286.54 924.24 294.08 923.01 301.49 922.11 309.05 921.81 316.76 922.74 324.39 924.65 332.2 927.68 340.2 932.22 348.15 937.92 356.31 944.68 364.7 952.62 373.06 961.17 381.67 969.98 390.52 979 399.36 987.48 408.46 994.95 417.81 1001.39 427.17 1005.93 436.57 1008.38 445.98 1009.12 455.4 1007.63 464.83 1004.02 474.23 998.84 483.62 991.92 492.96 983.6 502.21 974.45 511.43 964.51 520.51 954.16 529.41 943.88 538.22 933.74 546.78 923.98 555.03 914.96 563.12 906.61 570.83 899.01 578.08 892.4 585.09 886.53 591.56 881.32 597.43 875.07 605.43 865.18 617.41 860.73 621.28 856.47 623.96 846.11 625.68 839.62 625.07 835 624.6 829.78 623.84 823.98 622.92 818.03 622.39 811.52 621.92 804.48 621.62 797.33 622.01 789.7 622.76 781.63 623.94 773.5 625.99 764.98 628.54 756.11 631.57 747.21 635.45 738 639.72 728.51 644.28 719.01 649.4 709.47 654.4 699.93 659.14 690.38 663.96 680.83 668.18 671.29 671.66 661.75 674.8 652.23 676.97 642.74 678.09 633.25 678.59 623.8 677.94 614.42 676.15 605.07 673.65 595.79 670.05 586.65 665.41 577.58 660.14 568.67 653.97 559.99 647 551.45 639.59 543.19 631.54 535.29 622.99 527.6 614.2 520.34 605.06 513.56 595.66 507.07 586.21 501.11 576.62 495.75 566.96 490.7 557.37 486.24 547.77 482.4 538.22 478.82 528.79 475.82 519.41 473.37 510.12 471.04 500.95 469.17 491.85 467.72 482.82 466.19 473.89 464.95 465 463.94 456.15 462.68 447.36 461.53 438.58 460.48 429.81 459.04 421.08 457.65 412.32 456.31 403.55 454.59 394.8 452.97 386.01 451.52 377.21 449.82 368.41 448.47 359.79 447.52 351.39 446.59 342.99 446.23 334.8 446.47 326.86 446.95 318.92 448.14 311.24 450.07 303.84 452.35 296.47 455.39 289.38 459.15 282.62 463.27 275.89 468.05 269.48 473.44 263.43 479.09 257.41 485.23 251.73 491.79 246.41 498.45 241.1 505.42 236.12 512.63 231.49 519.77 226.82 527.06 222.45 534.46 218.37 541.68 214.19 548.96 210.25 556.28 206.53 563.38 202.63 570.52 198.89 577.7 195.28 584.67 191.42 591.71 187.64 598.84 183.95 605.79 179.93 612.88 175.96 620.13 172.05 627.25 167.82 634.57 163.65 642.12 159.58 649.58 155.25 657.3 151.07 665.3 147.11 673.25 143.01 681.5 139.23 690.07 135.84 698.62 132.5 707.51 129.68 716.74 127.47" stroke-dasharray="11 1" transform="rotate(8.08, 711, 400)" opacity="0.35"></path><path d="M722.44 138.23C731.41 136.28 740.49 135.06 749.67 134.58 758.86 134.43 768.15 135.05 777.49 136.43 786.84 138.17 796.22 140.65 805.59 143.83 814.92 147.33 824.19 151.47 833.3 156.18 842.3 161.13 851.06 166.58 859.49 172.47 867.67 178.49 875.38 184.86 882.52 191.54 889.27 198.23 895.31 205.16 900.53 212.27 905.25 219.33 909.06 226.53 911.92 233.84 914.26 241.05 915.67 248.35 916.18 255.73 916.36 262.98 915.83 270.31 914.73 277.72 913.71 285.01 912.47 292.39 911.21 299.87 910.61 307.24 910.41 314.74 910.82 322.37 912.39 329.92 914.88 337.62 918.37 345.49 923.22 353.31 929.06 361.31 935.79 369.5 943.52 377.66 951.73 386.04 960.11 394.62 968.62 403.19 976.6 411.98 983.63 420.99 989.72 430 994.08 439.01 996.54 448.01 997.47 457 996.36 465.97 993.29 474.87 988.78 483.76 982.62 492.56 975.09 501.23 966.72 509.86 957.51 518.32 947.77 526.56 937.97 534.7 928.14 542.57 918.52 550.1 909.45 557.48 900.89 564.46 892.93 570.97 885.8 577.26 879.31 583.03 873.44 588.2 866.08 595.25 854.19 605.65 848.99 608.95 844.21 611.26 833.6 612.78 827.36 612.35 820.59 611.81 804.36 610.62 794.89 610.56 788.34 611.22 781.3 612.21 773.83 613.57 766.3 615.73 758.36 618.32 750.04 621.33 741.7 625.09 733.02 629.19 724.01 633.51 715.01 638.35 705.92 643.07 696.77 647.52 687.64 652.07 678.47 656.08 669.28 659.42 660.11 662.47 650.94 664.65 641.79 665.89 632.67 666.58 623.58 666.23 614.57 664.84 605.62 662.81 596.77 659.76 588.06 655.74 579.46 651.13 571.04 645.65 562.88 639.4 554.88 632.71 547.19 625.38 539.87 617.52 532.77 609.4 526.11 600.89 519.93 592.08 514.03 583.16 508.65 574.06 503.84 564.84 499.31 555.63 495.34 546.38 491.95 537.12 488.77 527.94 486.11 518.79 483.96 509.7 481.89 500.69 480.22 491.74 478.92 482.86 477.51 474.07 476.35 465.31 475.39 456.62 474.16 447.98 473.02 439.37 471.96 430.8 470.51 422.25 469.1 413.72 467.73 405.21 465.99 396.72 464.34 388.22 462.84 379.76 461.1 371.29 459.69 363.04 458.66 355.02 457.64 347 457.14 339.22 457.23 331.69 457.53 324.16 458.51 316.9 460.19 309.93 462.21 302.96 464.96 296.29 468.4 289.93 472.2 283.58 476.66 277.55 481.72 271.85 487.06 266.15 492.91 260.77 499.19 255.73 505.61 250.66 512.37 245.91 519.39 241.46 526.41 236.94 533.6 232.69 540.93 228.7 548.14 224.59 555.44 220.68 562.78 216.97 569.95 213.06 577.17 209.29 584.42 205.64 591.49 201.74 598.62 197.91 605.82 194.16 612.85 190.11 620 186.1 627.27 182.16 634.41 177.93 641.73 173.78 649.23 169.72 656.64 165.45 664.27 161.33 672.15 157.43 679.98 153.43 688.07 149.73 696.45 146.42 704.8 143.16 713.46 140.41 722.44 138.23" stroke-dasharray="11 10" transform="rotate(12.12, 711, 400)" opacity="0.58"></path><path d="M727.27 149C735.94 147.08 744.69 145.85 753.48 145.32 762.27 145.1 771.1 145.61 779.92 146.84 788.74 148.4 797.52 150.67 806.22 153.6 814.86 156.84 823.35 160.69 831.63 165.11 839.76 169.76 847.6 174.91 855.03 180.49 862.22 186.21 868.9 192.3 874.99 198.69 880.71 205.14 885.74 211.83 889.99 218.73 893.82 225.59 896.83 232.62 898.99 239.78 900.76 246.86 901.76 254.04 902.01 261.31 902.09 268.48 901.62 275.74 900.75 283.07 900.09 290.29 899.34 297.61 898.68 305.01 898.71 312.31 899.17 319.73 900.24 327.25 902.4 334.71 905.39 342.29 909.27 350.01 914.34 357.68 920.26 365.51 926.91 373.49 934.41 381.45 942.27 389.58 950.2 397.89 958.22 406.18 965.71 414.65 972.3 423.3 978.06 431.94 982.24 440.56 984.69 449.12 985.78 457.67 985.01 466.16 982.44 474.56 978.56 482.93 973.12 491.18 966.36 499.26 958.77 507.3 950.29 515.13 941.22 522.71 931.97 530.21 922.55 537.4 913.2 544.24 904.22 550.93 895.59 557.22 887.42 563.04 879.92 568.67 872.96 573.79 866.54 578.35 858.22 584.55 844.4 593.62 838.4 596.47 832.96 598.52 821.71 600.01 815.48 599.79 808.93 599.58 793.62 599.26 784.8 599.63 778.72 600.54 772.19 601.74 765.23 603.26 758.22 605.51 750.82 608.12 743.03 611.09 735.21 614.73 727.05 618.64 718.54 622.75 710.04 627.31 701.42 631.74 692.72 635.93 684.05 640.21 675.31 644 666.54 647.19 657.8 650.14 649.06 652.31 640.33 653.63 631.65 654.48 623.02 654.39 614.48 653.35 606 651.75 597.65 649.2 589.47 645.75 581.41 641.76 573.56 636.95 565.98 631.39 558.58 625.4 551.49 618.78 544.79 611.63 538.32 604.19 532.27 596.33 526.7 588.15 521.39 579.82 516.58 571.26 512.31 562.54 508.28 553.79 504.77 544.95 501.79 536.07 498.98 527.23 496.64 518.38 494.75 509.56 492.9 500.8 491.4 492.08 490.22 483.41 488.91 474.81 487.8 466.26 486.87 457.76 485.65 449.32 484.51 440.91 483.42 432.56 481.97 424.24 480.53 415.95 479.13 407.71 477.38 399.48 475.7 391.29 474.16 383.15 472.4 375 470.93 367.1 469.83 359.44 468.72 351.78 468.12 344.37 468.05 337.23 468.19 330.08 468.96 323.2 470.4 316.6 472.15 310 474.6 303.69 477.73 297.68 481.2 291.67 485.31 285.96 490.02 280.56 495.01 275.14 500.52 270.02 506.48 265.2 512.61 260.34 519.11 255.75 525.89 251.44 532.72 247.04 539.75 242.88 546.95 238.95 554.09 234.87 561.33 230.98 568.64 227.25 575.83 223.33 583.07 219.52 590.36 215.83 597.49 211.89 604.68 208.01 611.93 204.21 619.04 200.14 626.23 196.11 633.52 192.16 640.69 187.94 648.01 183.81 655.46 179.8 662.84 175.58 670.41 171.54 678.17 167.72 685.89 163.81 693.83 160.21 702.01 156.98 710.17 153.82 718.59 151.13 727.27 149" stroke-dasharray="11 6" transform="rotate(16.16, 711, 400)" opacity="0.64"></path><path d="M730.88 159.77C739.23 157.88 747.59 156.65 755.94 156.08 764.28 155.79 772.6 156.19 780.86 157.27 789.09 158.66 797.22 160.72 805.2 163.4 813.11 166.38 820.81 169.96 828.22 174.07 835.5 178.41 842.42 183.24 848.9 188.5 855.14 193.91 860.87 199.69 866 205.78 870.82 211.95 874.98 218.37 878.42 225.01 881.52 231.65 883.9 238.47 885.55 245.42 886.95 252.33 887.69 259.35 887.86 266.47 887.98 273.52 887.71 280.65 887.17 287.86 886.94 294.99 886.71 302.2 886.66 309.48 887.31 316.69 888.4 324 890.08 331.39 892.75 338.72 896.17 346.16 900.36 353.71 905.59 361.22 911.52 368.86 918.05 376.61 925.28 384.35 932.77 392.23 940.26 400.23 947.79 408.23 954.8 416.37 960.98 424.64 966.41 432.91 970.4 441.11 972.83 449.22 974.05 457.33 973.58 465.33 971.48 473.2 968.18 481.05 963.42 488.75 957.4 496.24 950.58 503.69 942.85 510.92 934.47 517.86 925.83 524.72 916.91 531.27 907.93 537.45 899.17 543.51 890.61 549.15 882.37 554.35 874.67 559.38 867.38 563.92 860.55 567.94 854.34 571.77 848.53 575.06 843.1 577.8 835.88 581.39 822.92 585.78 816.73 586.74 810.75 587.37 797.81 587.55 790.6 587.5 783.02 588.06 765.88 590.66 756.29 593.01 749.74 595.32 742.8 597.94 735.5 600.85 728.18 604.36 720.5 608.1 712.5 611.98 704.5 616.27 696.37 620.43 688.17 624.35 679.97 628.37 671.72 631.94 663.43 634.97 655.18 637.81 646.93 639.95 638.7 641.32 630.53 642.3 622.42 642.43 614.41 641.69 606.49 640.47 598.71 638.37 591.12 635.45 583.65 632.04 576.42 627.85 569.47 622.94 562.7 617.64 556.25 611.72 550.19 605.26 544.35 598.51 538.92 591.33 533.95 583.79 529.22 576.09 524.95 568.12 521.19 559.95 517.63 551.72 514.54 543.36 511.94 534.92 509.46 526.48 507.4 518 505.73 509.53 504.06 501.09 502.7 492.66 501.61 484.28 500.37 475.94 499.3 467.64 498.37 459.4 497.15 451.19 495.99 443.03 494.88 434.94 493.4 426.87 491.94 418.85 490.51 410.89 488.74 402.94 487.05 395.05 485.48 387.23 483.7 379.41 482.2 371.84 481.03 364.52 479.86 357.21 479.15 350.14 478.95 343.35 478.92 336.54 479.5 330.01 480.7 323.75 482.2 317.48 484.35 311.49 487.15 305.79 490.27 300.07 494.03 294.63 498.36 289.48 502.98 284.29 508.12 279.38 513.72 274.74 519.52 270.04 525.69 265.59 532.18 261.37 538.76 257.07 545.57 252.96 552.57 249.06 559.56 245 566.68 241.11 573.9 237.36 581.03 233.41 588.24 229.57 595.5 225.83 602.65 221.85 609.85 217.95 617.1 214.11 624.24 210.02 631.45 205.99 638.74 202.03 645.92 197.85 653.22 193.76 660.62 189.79 667.96 185.66 675.45 181.7 683.08 177.96 690.68 174.16 698.46 170.66 706.42 167.53 714.37 164.46 722.52 161.85 730.88 159.77" stroke-dasharray="8 1" transform="rotate(20.200000000000003, 711, 400)" opacity="0.09"></path><path d="M732.99 170.53C740.98 168.69 748.93 167.46 756.8 166.85 764.66 166.5 772.44 166.8 780.09 167.73 787.71 168.96 795.17 170.81 802.42 173.26 809.59 175.98 816.5 179.26 823.08 183.07 829.52 187.1 835.58 191.61 841.18 196.53 846.57 201.61 851.45 207.06 855.75 212.83 859.8 218.69 863.24 224.81 866.04 231.16 868.6 237.53 870.53 244.09 871.85 250.81 873.03 257.5 873.69 264.32 873.91 271.24 874.2 278.11 874.22 285.08 874.09 292.12 874.33 299.11 874.65 306.17 875.2 313.3 876.43 320.38 878.1 327.53 880.31 334.76 883.42 341.94 887.19 349.21 891.62 356.56 896.93 363.88 902.83 371.3 909.19 378.82 916.13 386.31 923.24 393.91 930.29 401.61 937.34 409.3 943.89 417.09 949.66 424.97 954.76 432.85 958.56 440.62 960.95 448.28 962.28 455.93 962.08 463.44 960.39 470.79 957.63 478.12 953.52 485.27 948.21 492.19 942.13 499.07 935.16 505.7 927.5 512.04 919.51 518.31 911.15 524.25 902.63 529.82 894.2 535.29 885.85 540.35 877.69 544.99 869.92 549.48 862.46 553.52 855.37 557.07 848.78 560.48 842.54 563.4 836.64 565.82 828.64 569.04 814.22 573.11 807.46 574.13 801.01 574.93 787.62 575.73 780.44 576.08 773.02 577.02 756.59 580.27 747.51 582.81 741.33 585.16 734.8 587.77 727.94 590.62 721.06 594 713.86 597.55 706.35 601.21 698.84 605.24 691.21 609.13 683.51 612.79 675.83 616.56 668.09 619.91 660.33 622.77 652.61 625.49 644.89 627.57 637.22 628.97 629.61 630.05 622.08 630.35 614.67 629.88 607.35 628.99 600.18 627.31 593.22 624.85 586.39 621.97 579.8 618.36 573.5 614.08 567.38 609.43 561.58 604.18 556.16 598.39 550.93 592.33 546.11 585.82 541.72 578.95 537.53 571.89 533.78 564.54 530.49 556.97 527.36 549.3 524.66 541.47 522.38 533.53 520.19 525.56 518.36 517.52 516.88 509.45 515.36 501.4 514.1 493.33 513.07 485.29 511.87 477.27 510.82 469.28 509.87 461.34 508.64 453.42 507.46 445.56 506.31 437.75 504.81 429.96 503.33 422.23 501.87 414.58 500.1 406.93 498.39 399.34 496.8 391.84 495.01 384.34 493.48 377.09 492.27 370.1 491.04 363.11 490.24 356.37 489.92 349.89 489.74 343.41 490.14 337.18 491.11 331.22 492.35 325.25 494.21 319.54 496.68 314.1 499.46 308.63 502.84 303.42 506.79 298.47 511.02 293.48 515.76 288.74 520.97 284.24 526.38 279.67 532.19 275.31 538.33 271.17 544.59 266.93 551.12 262.86 557.85 258.97 564.62 254.93 571.54 251.02 578.59 247.24 585.6 243.28 592.7 239.4 599.86 235.62 606.95 231.62 614.1 227.69 621.3 223.83 628.42 219.74 635.59 215.72 642.82 211.79 649.98 207.65 657.22 203.61 664.54 199.71 671.81 195.67 679.19 191.8 686.67 188.17 694.12 184.48 701.71 181.1 709.43 178.06 717.14 175.1 725 172.56 732.99 170.53" stroke-dasharray="1 2" transform="rotate(24.24, 711, 400)" opacity="0.37"></path><path d="M733.45 181.3C741.05 179.5 748.55 178.28 755.92 177.63 763.28 177.23 770.49 177.43 777.53 178.23 784.53 179.29 791.32 180.94 797.85 183.16 804.31 185.63 810.46 188.63 816.26 192.13 821.94 195.85 827.22 200.02 832.04 204.6 836.69 209.34 840.85 214.44 844.47 219.87 847.91 225.39 850.79 231.18 853.13 237.21 855.3 243.28 856.95 249.55 858.11 255.98 859.21 262.41 859.93 268.98 860.33 275.66 860.87 282.32 861.25 289.07 861.58 295.91 862.31 302.7 863.18 309.57 864.29 316.51 866.06 323.4 868.25 330.37 870.92 337.4 874.4 344.39 878.44 351.45 883.03 358.58 888.37 365.68 894.18 372.86 900.34 380.09 906.96 387.32 913.68 394.63 920.29 401.99 926.87 409.35 932.96 416.78 938.34 424.26 943.12 431.73 946.73 439.08 949.07 446.28 950.47 453.47 950.51 460.49 949.2 467.33 946.93 474.15 943.41 480.76 938.79 487.14 933.43 493.47 927.19 499.54 920.25 505.31 912.95 511.02 905.22 516.4 897.23 521.42 889.23 526.35 881.2 530.9 873.25 535.04 865.56 539.07 858.08 542.68 850.86 545.85 844.04 548.91 837.51 551.53 831.27 553.71 822.64 556.66 806.94 560.57 799.61 561.69 792.66 562.7 778.67 564.14 771.4 564.87 764.02 566.16 748.03 569.96 739.35 572.66 733.47 575.04 727.29 577.62 720.82 580.39 714.34 583.63 707.58 587 700.55 590.45 693.51 594.22 686.39 597.85 679.2 601.25 672.04 604.76 664.83 607.9 657.63 610.59 650.46 613.18 643.32 615.19 636.24 616.6 629.22 617.73 622.3 618.18 615.51 617.93 608.82 617.33 602.29 616 595.99 613.98 589.8 611.58 583.87 608.5 578.23 604.8 572.74 600.76 567.58 596.14 562.78 591.01 558.15 585.62 553.9 579.78 550.05 573.56 546.37 567.16 543.09 560.45 540.22 553.49 537.47 546.42 535.1 539.16 533.11 531.76 531.15 524.31 529.51 516.77 528.18 509.16 526.77 501.54 525.58 493.9 524.59 486.25 523.41 478.61 522.35 470.98 521.38 463.39 520.12 455.81 518.9 448.27 517.72 440.79 516.2 433.32 514.69 425.91 513.21 418.57 511.43 411.24 509.72 403.97 508.12 396.79 506.33 389.61 504.79 382.68 503.54 376.01 502.26 369.32 501.39 362.89 500.96 356.71 500.76 347.54 503.41 330.43 506.35 322.48 508.78 317.23 511.79 312.21 515.34 307.44 519.16 302.61 523.49 298 528.27 293.61 533.27 289.14 538.68 284.86 544.42 280.77 550.31 276.57 556.48 272.53 562.89 268.64 569.36 264.6 576.01 260.68 582.81 256.88 589.61 252.9 596.52 249 603.51 245.19 610.46 241.18 617.49 237.24 624.56 233.37 631.58 229.31 638.66 225.32 645.78 221.41 652.85 217.34 659.98 213.38 667.16 209.56 674.31 205.62 681.53 201.86 688.82 198.34 696.09 194.78 703.45 191.51 710.89 188.58 718.32 185.72 725.85 183.27 733.45 181.3" stroke-dasharray="7 2" transform="rotate(28.28, 711, 400)" opacity="0.31"></path><path d="M732.22 192.07C739.41 190.32 746.43 189.1 753.29 188.44 760.13 187.98 766.79 188.1 773.22 188.76 779.61 189.67 785.76 191.13 791.62 193.11 797.41 195.33 802.88 198.06 807.98 201.25 812.98 204.65 817.58 208.49 821.75 212.72 825.78 217.11 829.36 221.86 832.46 226.91 835.43 232.08 837.92 237.52 839.95 243.2 841.89 248.94 843.42 254.88 844.55 260.99 845.72 267.13 846.6 273.41 847.26 279.8 848.12 286.19 848.91 292.69 849.72 299.26 850.93 305.82 852.32 312.45 853.96 319.15 856.21 325.82 858.84 332.55 861.9 339.34 865.66 346.1 869.89 352.92 874.57 359.78 879.88 366.63 885.55 373.54 891.47 380.48 897.76 387.42 904.08 394.4 910.25 401.41 916.37 408.43 922.03 415.48 927.02 422.55 931.49 429.61 934.9 436.52 937.17 443.26 938.64 449.99 938.87 456.54 937.9 462.89 936.07 469.21 933.11 475.31 929.12 481.16 924.45 486.98 918.93 492.53 912.72 497.78 906.12 502.97 899.04 507.84 891.65 512.38 884.16 516.83 876.55 520.93 868.92 524.65 861.45 528.28 854.09 531.53 846.89 534.38 840 537.16 833.31 539.55 826.87 541.55 817.8 544.33 801.08 548.21 793.26 549.48 785.84 550.71 771.2 552.77 763.78 553.86 756.34 555.47 740.62 559.74 732.24 562.56 726.6 564.94 720.71 567.48 714.59 570.16 708.47 573.26 702.11 576.45 695.53 579.68 688.95 583.2 682.3 586.58 675.64 589.74 668.98 593 662.32 595.92 655.68 598.43 649.08 600.88 642.52 602.81 636.05 604.2 629.64 605.37 623.33 605.93 617.19 605.87 611.12 605.51 605.24 604.49 599.59 602.84 594.04 600.87 588.75 598.28 583.75 595.11 578.87 591.64 574.32 587.62 570.1 583.11 566.02 578.36 562.3 573.17 558.95 567.6 555.72 561.86 552.85 555.79 550.35 549.45 547.92 543 545.84 536.34 544.08 529.51 542.31 522.62 540.83 515.6 539.59 508.5 538.26 501.37 537.11 494.19 536.13 486.98 534.95 479.77 533.87 472.54 532.86 465.34 531.57 458.15 530.32 450.98 529.09 443.85 527.55 436.73 526.02 429.66 524.53 422.66 522.75 415.66 521.04 408.73 519.45 401.87 517.66 395.02 516.11 388.4 514.84 382.03 513.53 375.65 512.6 369.5 512.07 363.59 511.67 354.83 513.67 338.43 516.16 330.78 519.58 323.29 529.41 309.3 535.69 302.74 540.25 298.36 545.21 294.14 550.52 290.08 555.99 285.92 561.75 281.9 567.77 278 573.88 273.98 580.19 270.05 586.66 266.23 593.17 262.24 599.81 258.34 606.55 254.51 613.28 250.51 620.09 246.58 626.96 242.73 633.81 238.71 640.71 234.76 647.64 230.92 654.55 226.92 661.51 223.05 668.49 219.33 675.46 215.51 682.47 211.87 689.52 208.47 696.56 205.04 703.64 201.9 710.76 199.08 717.88 196.33 725.04 193.98 732.22 192.07" stroke-dasharray="1 7" transform="rotate(32.32, 711, 400)" opacity="0.58"></path><path d="M729.4 202.83C736.14 201.14 742.69 199.94 749.03 199.25 755.36 198.76 761.46 198.79 767.32 199.33 775.92 200.73 791.56 206.33 798.5 210.45 804.94 215.29 815.73 227.14 820.02 234.01 823.8 241.34 829.4 257.35 831.39 265.91 832.71 271.7 833.84 277.65 834.82 283.72 836.05 289.8 837.26 295.99 838.54 302.27 840.22 308.54 842.08 314.89 844.19 321.31 846.85 327.71 849.85 334.17 853.21 340.67 857.18 347.16 861.52 353.7 866.22 360.26 871.45 366.83 876.93 373.42 882.58 380.04 888.53 386.66 894.44 393.3 900.18 399.94 905.85 406.59 911.08 413.25 915.7 419.9 919.86 426.55 923.07 433.02 925.27 439.31 926.77 445.59 927.17 451.67 926.5 457.54 925.07 463.39 922.62 469.01 919.22 474.37 915.2 479.7 910.38 484.77 904.87 489.55 898.98 494.28 892.58 498.7 885.82 502.8 878.91 506.85 871.8 510.56 864.6 513.92 857.46 517.22 850.34 520.18 843.31 522.78 836.48 525.34 829.79 527.56 823.27 529.45 817.02 531.33 810.93 532.9 805.01 534.19 796.57 536.08 780.57 538.99 772.85 540.19 765.34 541.65 750.22 544.93 742.47 546.95 737.3 548.68 731.99 550.53 726.52 552.5 721.06 554.86 715.43 557.35 709.62 559.94 703.82 562.88 697.83 565.89 691.67 568.91 685.51 572.19 679.34 575.32 673.17 578.24 667.02 581.26 660.89 583.96 654.81 586.3 648.76 588.59 642.78 590.43 636.91 591.79 628.25 593.29 611.81 593.16 604.16 591.46 596.88 588.8 583.83 580.34 578.15 574.69 572.94 568.26 564.3 553.21 560.86 544.78 558.7 538.95 556.84 532.9 555.26 526.66 553.65 520.35 552.26 513.89 551.1 507.32 549.81 500.72 548.68 494.03 547.68 487.3 546.48 480.56 545.37 473.78 544.31 467 542.99 460.23 541.7 453.46 540.43 446.72 538.87 439.98 537.33 433.28 535.82 426.63 534.06 419.99 532.36 413.4 530.77 406.88 529 400.36 527.46 394.05 526.17 387.98 524.36 378.96 522.69 361.99 523.01 354.03 524.09 346.25 529.06 331.62 532.95 324.76 535.94 320.19 539.4 315.79 543.29 311.56 547.39 307.25 551.88 303.08 556.72 299.06 561.73 294.93 567.04 290.93 572.61 287.04 578.3 283.02 584.2 279.1 590.29 275.27 596.43 271.3 602.72 267.41 609.13 263.59 615.55 259.62 622.07 255.72 628.66 251.9 635.24 247.94 641.88 244.07 648.56 240.29 655.23 236.4 661.93 232.64 668.66 229.02 675.37 225.34 682.12 221.83 688.87 218.56 695.61 215.28 702.38 212.26 709.14 209.57 715.9 206.94 722.66 204.68 729.4 202.83" stroke-dasharray="1 10" transform="rotate(36.36, 711, 400)" opacity="0.33"></path><path d="M725.2 213.6C731.48 211.96 737.55 210.79 743.39 210.09 749.22 209.56 754.8 209.51 760.12 209.94 770.69 211.39 780.09 214.72 788.17 219.74 796.03 225.46 802.49 232.7 807.51 241.18 812.41 250.11 816.12 260.07 818.83 270.77 822.07 281.66 825.01 293.15 828.08 305.01 832.68 316.9 838.18 329.11 844.83 341.47 853.48 353.83 863.26 366.34 873.67 378.87 879.25 385.14 884.76 391.42 890.07 397.68 895.3 403.95 900.12 410.21 904.38 416.43 908.23 422.66 911.25 428.7 913.36 434.54 914.87 440.38 915.42 446.02 915 451.43 912.22 462.21 905.89 472.04 896.69 480.78 885.96 489.38 873.51 496.82 860.16 503 846.79 509.04 833.37 513.86 820.32 517.49 808.01 521.18 796.18 523.92 784.86 525.86 774.22 528.35 763.78 530.48 753.41 532.45 743.37 535.53 733.06 538.86 722.42 542.49 717.13 544.82 711.72 547.23 706.2 549.72 700.67 552.51 695.03 555.33 689.27 558.14 683.51 561.19 677.77 564.07 672.08 566.76 666.4 569.54 660.78 572.03 655.24 574.2 644.22 578.41 633.64 580.86 623.73 581.43 614.05 581.21 605.2 578.88 597.39 574.57 589.89 569.38 583.51 562.37 578.35 553.85 573.36 544.7 569.47 534.34 566.61 523.13 563.5 511.62 561.09 499.5 559.21 487.06 556.54 474.55 554.06 461.86 551.72 449.2 550.15 442.87 548.6 436.56 547.09 430.29 545.34 424.01 543.66 417.78 542.09 411.6 540.35 405.42 538.83 399.43 537.54 393.65 536.21 387.86 535.19 382.27 534.51 376.87 533.39 366.04 533.98 355.94 536.32 346.59 539.46 337.09 544.46 328.21 551.11 319.96 558.58 311.41 567.5 303.33 577.54 295.69 588.08 287.61 599.48 279.84 611.42 272.4 623.54 264.45 636.05 256.78 648.71 249.55 661.42 241.92 674.25 234.86 687.04 228.62 693.45 225.48 699.84 222.61 706.21 220.04 712.58 217.53 718.92 215.37 725.2 213.6" stroke-dasharray="11 5" transform="rotate(40.400000000000006, 711, 400)" opacity="0.61"></path><path d="M719.93 224.37C731.56 221.35 742.29 220.11 751.99 220.59 761.61 221.75 770.11 224.65 777.4 229.12 784.55 234.22 790.49 240.75 795.23 248.47 800.02 256.62 803.87 265.76 807.03 275.65 810.8 285.76 814.45 296.47 818.34 307.57 823.62 318.74 829.71 330.24 836.72 341.88 845.39 353.54 854.88 365.33 864.74 377.11 875.22 388.9 884.97 400.68 893.05 412.28 899.76 423.88 903.26 434.73 903.41 444.71 901.35 454.64 896.08 463.65 888.17 471.63 878.79 479.52 867.67 486.33 855.49 492.03 843.09 497.65 830.38 502.21 817.79 505.75 805.69 509.42 793.91 512.3 782.54 514.52 771.72 517.28 761.14 519.74 750.72 522.06 740.61 525.36 730.4 528.84 720.07 532.51 709.82 537.35 699.27 542.38 688.5 547.38 677.72 553.16 667.21 558.16 657.12 562.12 647.09 566.04 637.58 568.4 628.79 569.09 620.15 569.16 612.34 567.36 605.51 563.78 598.89 559.45 593.28 553.46 588.75 546.04 584.28 538.06 580.73 528.9 578.07 518.85 575.08 508.52 572.67 497.52 570.71 486.13 567.97 474.65 565.4 462.9 562.97 451.11 559.58 439.31 556.33 427.5 553.41 415.84 549.9 404.18 547.32 393.19 545.85 382.9 544.57 372.57 544.83 362.88 546.67 353.83 549.21 344.64 553.44 335.99 559.22 327.88 565.74 319.5 573.65 311.52 582.68 303.94 592.21 295.98 602.62 288.3 613.62 280.95 624.86 273.17 636.52 265.71 648.37 258.68 660.31 251.35 672.36 244.59 684.34 238.64 696.37 232.71 708.29 227.85 719.93 224.37" stroke-dasharray="3 2" transform="rotate(44.44, 711, 400)" opacity="0.38"></path><path d="M713.98 235.14C724.69 232.24 734.51 230.97 743.36 231.27 752.15 232.18 759.92 234.67 766.61 238.6 773.24 243.11 778.86 248.94 783.52 255.89 788.33 263.25 792.46 271.56 796.12 280.61 800.42 289.9 804.74 299.78 809.33 310.06 815.15 320.44 821.64 331.15 828.86 342.01 837.4 352.9 846.51 363.92 855.76 374.91 865.44 385.91 874.36 396.87 881.73 407.62 887.93 418.38 891.3 428.39 891.74 437.56 890.3 446.7 886.01 454.97 879.29 462.29 871.23 469.54 861.43 475.84 850.5 481.14 839.19 486.43 827.38 490.81 815.49 494.32 803.85 498.01 792.37 501.04 781.2 503.52 770.43 506.52 759.88 509.26 749.56 511.87 739.49 515.34 729.46 518.91 719.46 522.58 709.53 527.23 699.5 531.98 689.42 536.61 679.33 541.91 669.66 546.48 660.5 550.08 651.37 553.69 642.84 555.93 635.03 556.69 627.32 556.98 620.41 555.62 614.42 552.67 608.53 549.11 603.55 544.03 599.51 537.63 595.43 530.73 592.13 522.71 589.58 513.8 586.65 504.61 584.2 494.73 582.13 484.39 579.32 473.95 576.67 463.18 574.17 452.28 570.8 441.37 567.6 430.36 564.73 419.42 561.33 408.48 558.78 398.1 557.25 388.32 555.85 378.49 555.83 369.2 557.23 360.47 559.2 351.61 562.72 343.2 567.66 335.25 573.25 327.07 580.16 319.24 588.14 311.76 596.62 303.96 605.97 296.43 615.94 289.24 626.19 281.69 636.88 274.46 647.8 267.7 658.84 260.7 670.01 254.27 681.1 248.63 692.25 243.03 703.27 238.45 713.98 235.14" stroke-dasharray="6 2" transform="rotate(48.48, 711, 400)" opacity="0.92"></path><path d="M707.81 245.9C717.61 243.14 726.59 241.86 734.69 242.01 742.76 242.68 749.93 244.79 756.2 248.21 762.47 252.14 767.92 257.29 772.63 263.48 777.57 270.05 782.03 277.53 786.19 285.73 790.98 294.15 795.86 303.17 801.01 312.59 807.2 322.13 813.94 331.99 821.2 342.01 829.5 352.08 838.13 362.28 846.74 372.44 855.62 382.62 863.72 392.74 870.41 402.65 876.1 412.56 879.32 421.77 879.99 430.19 879.08 438.58 875.66 446.18 870.05 452.91 863.23 459.61 854.75 465.47 845.1 470.46 834.97 475.49 824.21 479.74 813.19 483.25 802.25 486.98 791.31 490.16 780.56 492.87 770.08 496.07 759.77 499.04 749.7 501.87 739.83 505.44 730.07 509.05 720.45 512.68 710.9 517.13 701.38 521.57 691.96 525.84 682.53 530.68 673.63 534.82 665.31 538.08 656.99 541.37 649.31 543.46 642.36 544.25 635.44 544.69 629.3 543.68 623.99 541.27 618.7 538.38 614.21 534.11 610.53 528.63 606.73 522.73 603.6 515.77 601.09 507.93 598.17 499.85 595.65 491.06 593.46 481.77 590.59 472.37 587.86 462.59 585.31 452.59 581.99 442.58 578.85 432.4 576.05 422.2 572.77 412 570.29 402.25 568.73 392.98 567.24 383.68 566.99 374.82 568 366.42 569.46 357.91 572.32 349.78 576.46 342.04 581.17 334.1 587.09 326.46 594.04 319.15 601.44 311.57 609.71 304.25 618.6 297.26 627.78 290 637.43 283.07 647.33 276.6 657.37 269.97 667.57 263.9 677.72 258.59 687.92 253.34 698.02 249.03 707.81 245.9" stroke-dasharray="1 6" transform="rotate(52.52, 711, 400)" opacity="0.41"></path><path d="M701.89 256.67C710.8 254.05 719.01 252.77 726.47 252.78 733.91 253.24 740.61 254.99 746.57 257.93 752.58 261.31 757.97 265.8 762.81 271.26 767.91 277.06 772.69 283.71 777.3 291.04 782.49 298.59 787.8 306.72 793.34 315.25 799.75 323.9 806.55 332.88 813.71 342.03 821.65 351.24 829.74 360.57 837.66 369.88 845.75 379.21 853.06 388.49 859.09 397.57 864.28 406.65 867.33 415.08 868.17 422.8 867.71 430.5 865.06 437.48 860.46 443.7 854.79 449.91 847.57 455.39 839.2 460.13 830.31 464.94 820.69 469.09 810.69 472.63 800.63 476.39 790.44 479.69 780.32 482.6 770.35 485.94 760.49 489.08 750.84 492.07 741.33 495.68 731.97 499.27 722.8 502.81 713.7 507.02 704.71 511.17 695.93 515.08 687.14 519.47 678.94 523.19 671.36 526.11 663.78 529.09 656.84 531.01 650.6 531.79 641.59 531.96 627.17 525.52 621.69 519.09 618.08 514.09 615.04 508.1 612.51 501.28 609.58 494.24 606.98 486.49 604.67 478.21 601.74 469.84 598.97 461.03 596.38 451.95 593.13 442.84 590.08 433.51 587.38 424.07 584.24 414.62 581.84 405.51 580.28 396.79 578.74 388.05 578.3 379.64 578.97 371.61 579.99 363.49 582.25 355.67 585.67 348.19 589.54 340.55 594.53 333.16 600.48 326.08 606.82 318.79 613.99 311.74 621.79 305.03 629.86 298.11 638.41 291.52 647.26 285.4 656.25 279.16 665.42 273.48 674.59 268.51 683.81 263.62 692.97 259.61 701.89 256.67" stroke-dasharray="7 10" transform="rotate(56.56, 711, 400)" opacity="0.61"></path><path d="M696.64 267.44C704.71 264.97 712.21 263.71 719.09 263.6 725.98 263.87 732.29 265.29 738.03 267.78 743.86 270.64 749.23 274.52 754.21 279.26 759.45 284.31 764.5 290.15 769.45 296.62 774.92 303.3 780.5 310.53 786.27 318.16 792.71 325.9 799.43 333.98 806.34 342.23 813.82 350.54 821.32 358.99 828.54 367.43 835.83 375.9 842.38 384.32 847.77 392.58 852.47 400.84 855.32 408.53 856.28 415.58 856.2 422.63 854.2 429.05 850.51 434.81 845.91 440.58 839.88 445.73 832.74 450.26 825.1 454.87 816.68 458.94 807.79 462.49 798.76 466.26 789.48 469.65 780.16 472.7 770.9 476.14 761.67 479.38 752.61 482.45 743.63 486.04 734.79 489.56 726.17 492.97 717.59 496.93 709.19 500.75 701.03 504.31 692.88 508.26 685.33 511.58 678.41 514.17 668.32 517.71 651.32 519.64 644.44 517.79 638.05 514.45 627.87 502.29 623.79 493.84 620.83 487.77 618.15 481.01 615.74 473.71 612.78 466.31 609.99 458.46 607.39 450.29 604.23 442.08 601.29 433.6 598.7 424.93 595.73 416.27 593.44 407.83 591.9 399.69 590.35 391.52 589.76 383.61 590.15 376 590.8 368.31 592.53 360.87 595.29 353.71 598.41 346.43 602.53 339.37 607.53 332.58 612.87 325.64 618.98 318.93 625.7 312.55 632.66 306.02 640.12 299.83 647.89 294.1 655.8 288.29 663.93 283.01 672.11 278.41 680.35 273.89 688.57 270.18 696.64 267.44" stroke-dasharray="7 8" transform="rotate(60.599999999999994, 711, 400)" opacity="0.53"></path><path d="M692.48 278.2C699.73 275.91 706.57 274.68 712.94 274.47 719.33 274.57 725.3 275.7 730.85 277.77 736.5 280.15 741.84 283.43 746.92 287.5 752.24 291.83 757.46 296.88 762.63 302.52 768.22 308.34 773.92 314.68 779.72 321.41 786.04 328.24 792.53 335.4 799.07 342.75 806.01 350.16 812.85 357.71 819.35 365.28 825.86 372.87 831.67 380.46 836.45 387.92 840.67 395.37 843.31 402.33 844.34 408.76 844.54 415.18 843.12 421.07 840.22 426.41 836.57 431.77 831.64 436.62 825.68 440.94 819.26 445.36 812.05 449.34 804.32 452.89 796.4 456.63 788.16 460.06 779.78 463.19 771.39 466.64 762.95 469.92 754.62 473 746.32 476.51 738.13 479.92 730.14 483.15 722.19 486.83 714.41 490.34 706.89 493.54 699.37 497.07 692.43 500.01 686.11 502.28 676.88 505.41 661.29 507.26 654.9 505.79 648.89 503.08 638.99 492.9 634.85 485.69 631.87 480.5 629.13 474.66 626.64 468.27 623.69 461.82 620.91 454.89 618.34 447.6 615.29 440.29 612.48 432.65 610.02 424.77 607.23 416.89 605.07 409.15 603.58 401.62 602.05 394.07 601.37 386.7 601.53 379.56 601.88 372.37 603.16 365.37 605.34 358.6 607.79 351.74 611.13 345.07 615.26 338.66 619.65 332.13 624.77 325.83 630.47 319.85 636.36 313.77 642.75 308.01 649.48 302.7 656.32 297.35 663.42 292.5 670.64 288.28 677.9 284.14 685.22 280.73 692.48 278.2" stroke-dasharray="10 4" transform="rotate(64.64, 711, 400)" opacity="0.45"></path><path d="M689.7 288.97C696.19 286.85 702.39 285.67 708.28 285.39 717.01 285.78 733.26 291.21 740.98 296.01 746.28 299.66 751.54 303.96 756.77 308.79 762.32 313.78 767.94 319.26 773.62 325.09 779.67 331.03 785.78 337.28 791.84 343.73 798.17 350.23 804.33 356.89 810.1 363.6 815.84 370.32 820.94 377.07 825.13 383.74 828.88 390.4 831.29 396.67 832.35 402.48 832.29 411 824.83 425.86 818 432.26 812.72 436.47 806.69 440.32 800.13 443.82 793.37 447.5 786.22 450.9 778.87 454.05 771.47 457.46 763.95 460.69 756.46 463.73 748.98 467.1 741.55 470.33 734.27 473.37 727.02 476.74 719.92 479.92 713.05 482.78 706.18 485.9 699.85 488.46 694.07 490.43 685.62 493.15 671.24 494.84 665.24 493.66 659.52 491.47 649.82 482.99 645.64 476.88 642.65 472.49 639.89 467.48 637.36 461.96 634.45 456.38 631.71 450.33 629.2 443.9 626.31 437.46 623.66 430.66 621.34 423.58 618.75 416.51 616.74 409.49 615.33 402.61 613.86 395.72 613.12 388.94 613.11 382.33 613.22 375.69 614.13 369.19 615.82 362.88 617.7 356.51 620.35 350.31 623.7 344.34 627.25 338.29 631.45 332.46 636.2 326.94 641.1 321.35 646.48 316.07 652.21 311.22 658.04 306.35 664.15 301.94 670.44 298.12 676.76 294.38 683.21 291.28 689.7 288.97" stroke-dasharray="2 9" transform="rotate(68.68, 711, 400)" opacity="0.10"></path><path d="M688.53 299.74C700.03 296.05 710.95 295.67 721.08 298.18 731.53 301.46 741.76 307.45 751.75 315.47 762.68 324 773.84 334.2 784.63 345.29 796.04 356.55 806.3 368.44 813.81 380.23 819.96 392.02 821.47 402.55 818.68 411.58 814.04 420.74 805.76 428.67 795.12 435.34 783.7 442.57 770.86 449.03 757.75 454.61 744.59 461.21 731.44 467.2 719.06 472.01 706.67 477.62 696.07 481.01 687.35 482.04 678.38 482.96 670.93 481.06 665 476.56 658.32 471.66 652.6 464.26 647.88 454.86 641.93 445.28 636.68 433.96 632.66 421.42 627.76 408.88 625.13 396.34 624.87 384.33 624.84 372.24 627.61 360.51 632.85 349.65 638.62 338.61 646.65 328.39 656.22 319.66 666.04 310.97 677.03 304.04 688.53 299.74" stroke-dasharray="4 10" transform="rotate(72.72, 711, 400)" opacity="0.85"></path><path d="M689.04 310.5C699.11 307.18 709.02 306.66 718.51 308.61 728.23 311.13 737.95 315.98 747.45 322.6 757.59 329.62 767.77 338.14 777.38 347.54 787.33 357.07 796.11 367.27 802.49 377.54 807.85 387.82 809.41 397.17 807.46 405.37 804.15 413.67 797.74 421.06 789.19 427.42 779.96 434.22 769.3 440.35 758.14 445.64 746.88 451.67 735.43 457.05 724.46 461.24 713.48 466.05 703.93 468.89 695.9 469.69 687.66 470.49 680.63 468.93 674.83 465.17 668.43 461.17 662.84 455.01 658.17 447.06 652.57 438.99 647.68 429.29 643.98 418.37 639.59 407.44 637.19 396.37 636.81 385.65 636.51 374.89 638.55 364.39 642.7 354.66 647.17 344.83 653.62 335.75 661.56 328.04 669.65 320.4 678.97 314.31 689.04 310.5" stroke-dasharray="9 8" transform="rotate(76.76, 711, 400)" opacity="0.84"></path><path d="M691.21 321.27C699.89 318.33 708.7 317.73 717.33 319.19 726.13 321.05 735.03 324.86 743.72 330.2 752.79 335.82 761.78 342.77 770.08 350.56 778.52 358.44 785.86 367 791.17 375.78 795.74 384.56 797.26 392.73 795.99 400.04 793.75 407.44 788.96 414.17 782.31 420.06 775.12 426.29 766.56 431.95 757.35 436.8 748.04 442.18 738.35 446.89 728.85 450.47 719.34 454.5 710.88 456.82 703.58 457.42 696.12 458.06 689.57 456.76 684.02 453.64 678.02 450.4 672.69 445.33 668.22 438.72 663.08 432.02 658.63 423.87 655.31 414.56 651.45 405.25 649.32 395.69 648.89 386.37 648.44 377.03 649.93 367.88 653.17 359.39 656.58 350.87 661.7 343.02 668.18 336.36 674.74 329.8 682.52 324.57 691.21 321.27" stroke-dasharray="10 3" transform="rotate(80.80000000000001, 711, 400)" opacity="0.94"></path><path d="M694.86 332.04C702.16 329.51 709.75 328.89 717.31 329.92 724.99 331.23 732.79 334.13 740.37 338.29 748.17 342.65 755.77 348.14 762.68 354.4 769.61 360.73 775.56 367.71 779.84 375.02 783.63 382.33 785.03 389.27 784.27 395.61 782.87 402.02 779.45 407.96 774.47 413.25 769.11 418.76 762.5 423.79 755.19 428.08 747.78 432.73 739.87 436.73 731.89 439.71 723.92 442.99 716.62 444.82 710.15 445.23 703.57 445.69 697.65 444.6 692.51 442.05 687.05 439.44 682.16 435.35 678.03 429.96 673.45 424.53 669.53 417.86 666.63 410.15 663.34 402.44 661.52 394.45 661.11 386.61 660.62 378.78 661.7 371.07 664.21 363.92 666.78 356.78 670.77 350.2 675.97 344.64 681.19 339.18 687.56 334.82 694.86 332.04" stroke-dasharray="6 4" transform="rotate(84.84, 711, 400)" opacity="0.79"></path><path d="M699.72 342.8C711.54 338.84 724.86 340.75 737.24 346.87 749.98 353.44 761.66 363.59 768.52 375.3 774.14 387 772.56 398.06 765.71 406.95 757.89 416.39 746.17 424.41 733.37 428.94 720.57 434.23 709.09 434.55 700.21 430.48 690.57 426.33 682.5 417.56 677.95 405.32 672.39 393.06 671.84 379.81 675.69 368.31 679.53 356.9 687.89 347.44 699.72 342.8" stroke-dasharray="6 8" transform="rotate(88.88, 711, 400)" opacity="0.30"></path><path d="M705.43 353.57C714.42 350.47 724.68 351.65 734.13 355.95 743.69 360.48 752.26 367.8 757.2 376.59 761.46 385.38 760.68 394.02 756.09 401.11 750.98 408.51 742.76 414.75 733.17 418.17 723.57 422.02 714.46 422.12 707.12 419 699.4 415.88 692.91 409.38 689.27 400.27 685.05 391.15 684.63 381.23 687.48 372.62 690.25 364.11 696.44 357.06 705.43 353.57" stroke-dasharray="1 3" transform="rotate(92.92, 711, 400)" opacity="0.64"></path><path d="M711.56 364.34C723.73 360.23 739.34 367.08 745.88 378.85 751.23 390.62 744.04 403.02 731.3 407.41 718.55 412.53 705.41 407.27 700.59 395.2 694.71 383.13 699.39 369.14 711.56 364.34" stroke-dasharray="1 1" transform="rotate(96.96, 711, 400)" opacity="0.84"></path></g></svg>